<?xml version="1.0" encoding="utf-8"?>
<!-- Generator: Adobe Illustrator 16.0.0, SVG Export Plug-In . SVG Version: 6.00 Build 0)  -->
<!DOCTYPE svg PUBLIC "-//W3C//DTD SVG 1.1//EN" "http://www.w3.org/Graphics/SVG/1.1/DTD/svg11.dtd">
<svg version="1.1" id="Layer_1" xmlns="http://www.w3.org/2000/svg" xmlns:xlink="http://www.w3.org/1999/xlink" x="0px" y="0px"
	 width="100px" height="100px" viewBox="0 0 100 100" enable-background="new 0 0 100 100" xml:space="preserve">
<g>
	<path fill="#AD3336" d="M45.534,9.276c2.244-1.083,4.566,0.375,5.761,2.274c6.317,0.092,12.631,0.012,18.948,0.043
		c0.014,16.618,0.014,33.236,0.02,49.864c0.092,1.412-0.615,2.684-1.332,3.85c-1.822,2.951-3.588,5.94-5.373,8.916
		c-3.169,5.238-6.279,10.511-9.452,15.749c-0.125,0.188-0.372,0.581-0.498,0.779c-0.189,0.28-0.363,0.565-0.542,0.856
		c-0.136-0.209-0.401-0.645-0.532-0.856c-0.125-0.193-0.362-0.576-0.488-0.765c-4.324-7.218-8.644-14.434-12.968-21.65
		c-1.118-1.877-2.365-3.686-3.173-5.729c-0.015-14.156-0.005-28.313,0.005-42.47c6.317-0.029,12.635,0.031,18.947-0.029
		c1.233-2.108,3.972-3.5,6.235-2.053c2.911,1.528,2.641,6.286-0.421,7.473c-2.25,1.112-4.63-0.336-5.805-2.266
		c-5.282-0.068-10.564-0.012-15.847-0.032c0,5.072-0.004,10.148,0.01,15.222c5.273-0.014,10.541,0.025,15.818-0.019
		c1.33-2.441,4.77-3.662,6.941-1.548c2.665,2.177,1.165,6.956-2.221,7.278c-2.113,0.494-3.507-1.287-4.881-2.513
		c-5.214-0.261-10.448-0.024-15.658-0.099c-0.01,5.072-0.01,10.144,0,15.213c5.268-0.009,10.541,0.044,15.818-0.028
		c1.258-2.168,4.116-3.521,6.371-1.975c2.873,1.636,2.413,6.404-0.712,7.479c-2.259,1.006-4.469-0.513-5.679-2.36
		c-5.311-0.02-10.622-0.028-15.933,0c0.135,1.189,0.154,2.457,0.832,3.497c2.713,4.532,5.437,9.061,8.151,13.593
		c3.468,0,6.936,0,10.4-0.005c2.578-4.267,5.117-8.562,7.715-12.824c0.604-1.011,1.238-2.084,1.142-3.308
		c0.049-3.169-0.028-6.332,0-9.506c-5.243-0.009-10.486,0-15.726-0.009c-1.001,1.059-1.949,2.452-3.526,2.607
		c-2.486,0.508-5.021-1.698-4.89-4.229c-0.025-2.433,2.37-4.491,4.769-4.092c1.616,0.099,2.607,1.485,3.565,2.6
		c5.272,0.031,10.541,0.014,15.808,0.007c0-5.064,0.005-10.129,0-15.201c-5.286,0.024-10.573-0.075-15.86,0.056
		c-1.219,2.059-3.865,3.432-6.115,2.068c-2.975-1.466-2.791-6.271,0.29-7.502c2.25-1.159,4.654,0.314,5.854,2.249
		c5.276,0.054,10.549,0.01,15.831,0.024c0.005-5.072,0.005-10.144,0-15.223c-5.282,0.02-10.555-0.029-15.837,0.026
		c-1.233,2.102-3.957,3.5-6.216,2.063C42.134,15.241,42.429,10.44,45.534,9.276 M46.729,11.586
		c-2.128,0.568-0.832,4.042,1.098,2.989C49.679,13.959,48.557,10.953,46.729,11.586 M57.956,20.431
		c-0.963,0.707-0.711,2.278,0.362,2.729c1.099,0.546,2.56-0.617,2.201-1.807C60.336,20.221,58.817,19.672,57.956,20.431
		 M46.129,30.241c-1.538,1.262,0.494,3.763,2.022,2.494C49.931,31.528,47.706,28.773,46.129,30.241 M57.845,38.822
		c-1.631,1.437,0.948,3.896,2.273,2.237C61.603,39.71,59.229,37.388,57.845,38.822 M46.148,48.572
		c-1.698,1.364,0.842,3.957,2.235,2.273C49.795,49.491,47.522,47.198,46.148,48.572 M58.565,56.775
		c-2.143,0.44-1.078,3.889,0.968,3.053C61.391,59.185,60.418,56.215,58.565,56.775"/>
	<path fill="#F6F7F7" d="M46.729,11.586c1.829-0.633,2.951,2.373,1.098,2.989C45.897,15.628,44.601,12.155,46.729,11.586"/>
	<path fill="#F6F7F7" d="M57.956,20.429c0.861-0.757,2.38-0.21,2.563,0.927c0.358,1.188-1.103,2.353-2.201,1.804
		C57.25,22.709,56.993,21.138,57.956,20.429"/>
	<path fill="#F6F7F7" d="M46.129,30.238c1.582-1.465,3.802,1.29,2.022,2.497C46.623,34.004,44.591,31.503,46.129,30.238"/>
	<path fill="#F6F6F6" d="M46.148,48.572c1.374-1.374,3.647,0.919,2.235,2.273C46.99,52.528,44.45,49.936,46.148,48.572"/>
	<path fill="#F5F5F5" d="M58.565,56.775c1.853-0.561,2.825,2.409,0.968,3.053C57.487,60.664,56.423,57.216,58.565,56.775"/>
	<path fill="#AD3336" d="M21.13,52.857c0.987-0.475,2.007,0.164,2.535,0.997c2.781,0.043,5.558,0.009,8.339,0.02
		c0.005,7.313,0.005,14.627,0.005,21.94c0.044,0.624-0.271,1.181-0.585,1.692c-0.804,1.297-1.577,2.613-2.366,3.929
		c-1.393,2.303-2.762,4.624-4.155,6.927c-0.058,0.088-0.165,0.252-0.223,0.339c-0.077,0.125-0.16,0.252-0.236,0.377
		c-0.058-0.087-0.175-0.28-0.232-0.377c-0.053-0.083-0.16-0.251-0.213-0.334c-1.906-3.179-3.807-6.352-5.708-9.524
		c-0.493-0.827-1.04-1.625-1.397-2.52c-0.005-6.226,0-12.457,0.004-18.687c2.777-0.016,5.558,0.009,8.335-0.016
		c0.542-0.923,1.746-1.537,2.742-0.903c1.282,0.677,1.161,2.767-0.184,3.289c-0.992,0.493-2.036-0.146-2.554-0.997
		c-2.326-0.028-4.648-0.004-6.97-0.009c0,2.225-0.005,4.46,0,6.694c2.322-0.01,4.639,0.01,6.96-0.01
		c0.585-1.073,2.1-1.611,3.057-0.678c1.171,0.958,0.508,3.058-0.982,3.202c-0.929,0.213-1.543-0.57-2.147-1.112
		c-2.293-0.11-4.596-0.01-6.888-0.038c0,2.229,0,4.46,0,6.694c2.317-0.01,4.639,0.02,6.96-0.02c0.551-0.948,1.809-1.548,2.801-0.86
		c1.268,0.715,1.064,2.814-0.31,3.289c-0.996,0.44-1.969-0.233-2.501-1.04c-2.336-0.01-4.672-0.015-7.009,0
		c0.058,0.526,0.068,1.078,0.368,1.537c1.194,1.999,2.39,3.987,3.584,5.984c1.529,0,3.053,0,4.576-0.004
		c1.132-1.883,2.25-3.769,3.396-5.646c0.266-0.444,0.546-0.915,0.498-1.451c0.025-1.393-0.01-2.786,0-4.185
		c-2.302-0.005-4.61,0-6.917-0.005c-0.44,0.465-0.856,1.079-1.548,1.147c-1.098,0.222-2.211-0.75-2.153-1.863
		c-0.015-1.063,1.04-1.974,2.1-1.799c0.706,0.048,1.142,0.657,1.567,1.146C25.997,70,28.314,69.99,30.63,69.99
		c0-2.23,0.005-4.46,0-6.694c-2.322,0.015-4.648-0.029-6.975,0.029c-0.537,0.904-1.703,1.51-2.689,0.909
		c-1.311-0.644-1.229-2.757,0.126-3.299c0.991-0.513,2.045,0.135,2.578,0.986c2.317,0.024,4.639,0.005,6.96,0.011
		c0.005-2.231,0.005-4.461,0-6.695c-2.322,0.01-4.643-0.014-6.965,0.01c-0.542,0.929-1.742,1.538-2.733,0.909
		C19.636,55.479,19.767,53.37,21.13,52.857 M21.658,53.874c-0.938,0.251-0.368,1.778,0.479,1.314
		C22.954,54.918,22.46,53.592,21.658,53.874 M26.597,57.762c-0.421,0.31-0.31,1.006,0.16,1.2c0.483,0.242,1.127-0.271,0.967-0.794
		C27.642,57.67,26.974,57.434,26.597,57.762 M21.392,62.077c-0.677,0.562,0.218,1.659,0.891,1.103
		C23.065,62.647,22.088,61.434,21.392,62.077 M26.548,65.859c-0.721,0.629,0.416,1.712,1.001,0.981
		C28.203,66.246,27.153,65.221,26.548,65.859 M21.401,70.146c-0.745,0.6,0.368,1.741,0.982,0.996
		C23.007,70.551,22.006,69.54,21.401,70.146 M26.867,73.754c-0.948,0.193-0.474,1.712,0.421,1.345
		C28.106,74.818,27.681,73.508,26.867,73.754"/>
	<path fill="#F6F7F7" d="M21.658,53.874c0.803-0.282,1.296,1.044,0.483,1.314C21.29,55.652,20.719,54.125,21.658,53.874"/>
	<path fill="#F6F7F7" d="M26.597,57.762c0.377-0.328,1.045-0.086,1.127,0.406c0.16,0.522-0.484,1.036-0.967,0.794
		C26.287,58.768,26.176,58.071,26.597,57.762"/>
	<path fill="#F6F7F7" d="M21.392,62.077c0.697-0.644,1.674,0.57,0.891,1.103C21.609,63.736,20.715,62.639,21.392,62.077"/>
	<path fill="#F6F6F6" d="M21.401,70.146c0.605-0.605,1.606,0.405,0.982,1.001C21.769,71.887,20.651,70.745,21.401,70.146"/>
	<path fill="#F5F5F5" d="M26.867,73.754c0.813-0.246,1.239,1.064,0.421,1.345C26.394,75.466,25.919,73.947,26.867,73.754"/>
</g>
</svg>
